<?xml version="1.0" encoding="UTF-8" standalone="no"?><!DOCTYPE svg PUBLIC "-//W3C//DTD SVG 1.1//EN" "http://www.w3.org/Graphics/SVG/1.1/DTD/svg11.dtd"><svg width="100%" height="100%" viewBox="0 0 210 300" version="1.1" xmlns="http://www.w3.org/2000/svg" xmlns:xlink="http://www.w3.org/1999/xlink" xml:space="preserve" xmlns:serif="http://www.serif.com/" style="fill-rule:evenodd;clip-rule:evenodd;stroke-linejoin:round;stroke-miterlimit:2;"><g id="Layer-1" serif:id="Layer 1"><path d="M23.761,207.484l33.642,-2.453" style="fill:none;fill-rule:nonzero;"/><path d="M23.758,210.493c-1.562,-0 -2.882,-1.207 -2.998,-2.79c-0.121,-1.657 1.125,-3.099 2.782,-3.221l33.642,-2.452c1.626,-0.141 3.099,1.122 3.221,2.782c0.121,1.657 -1.125,3.099 -2.782,3.22l-33.642,2.453c-0.075,0.006 -0.149,0.008 -0.223,0.008" style="fill:#fff;fill-rule:nonzero;"/><path d="M52.501,296.99c23.793,-0 32.359,-37.841 12.372,-77.813c-19.986,-39.973 -37.117,-53.297 -22.524,-93.904l129.947,-9.477c-14.593,40.607 2.538,53.932 22.524,93.904c19.987,39.973 11.421,77.813 -12.372,77.813l-129.947,9.477" style="fill:#fff;fill-rule:nonzero;"/><path d="M37.287,249.877l-32.373,2.36c-7.931,-33.06 11.104,-44.753 18.718,-44.753c7.614,0 21.572,5.348 15.227,34.851l-1.572,7.542Z" style="fill:#c6d3c1;fill-rule:nonzero;"/><path d="M63.306,153.62l8.496,-10.234c0.436,-0.526 0.516,-1.264 0.203,-1.872c-0.316,-0.609 -0.984,-0.98 -1.645,-0.917l-11.864,0.904c-0.46,0.035 -0.888,0.255 -1.182,0.611l-9.55,11.503c-0.588,0.708 -0.508,1.753 0.18,2.365l11.181,9.922c0.313,0.278 0.716,0.43 1.133,0.43c0.043,-0 0.086,-0.002 0.129,-0.005l11.866,-0.904c0.683,-0.052 1.268,-0.508 1.486,-1.156c0.219,-0.649 0.028,-1.365 -0.483,-1.82l-9.95,-8.827Z" style="fill:#38885f;fill-rule:nonzero;"/><path d="M89.462,163.789c0.314,0.278 0.717,0.429 1.133,0.429c0.043,0 0.086,-0.002 0.13,-0.005l11.865,-0.904c0.683,-0.052 1.268,-0.508 1.486,-1.156c0.22,-0.649 0.028,-1.365 -0.483,-1.82l-9.95,-8.827l8.496,-10.234c0.437,-0.526 0.516,-1.264 0.203,-1.871c-0.314,-0.61 -0.964,-0.983 -1.645,-0.918l-11.864,0.904c-0.459,0.035 -0.888,0.255 -1.182,0.611l-9.55,11.503c-0.588,0.708 -0.508,1.754 0.18,2.365l11.181,9.923Z" style="fill:#38885f;fill-rule:nonzero;"/><path d="M107.303,185.398c0.723,8.311 8.058,14.502 16.327,13.77l9.407,-0.467l13.889,12.129c0.318,0.278 0.718,0.421 1.122,0.421c0.257,-0 0.513,-0.057 0.753,-0.175c0.616,-0.303 0.991,-0.948 0.949,-1.633l-0.744,-12.195c7.464,-1.485 12.791,-8.402 12.115,-16.156c-0.722,-8.308 -8.089,-14.477 -16.375,-13.768l-23.677,1.684c-8.312,0.722 -14.488,8.074 -13.766,16.39" style="fill:#38885f;fill-rule:nonzero;"/><path d="M132.982,235.44c2.661,-3.057 3.971,-6.956 3.693,-10.973c-0.279,-4.019 -2.116,-7.697 -5.175,-10.358c-3.057,-2.661 -6.949,-3.976 -10.998,-3.69l-23.624,2.015c-8.317,0.588 -14.613,7.828 -14.037,16.147c0.539,7.765 6.877,13.771 14.482,14.076l1.159,12.16c0.065,0.685 0.534,1.264 1.19,1.467c0.167,0.052 0.338,0.077 0.506,0.077c0.497,0 0.978,-0.217 1.308,-0.611l11.837,-14.14l9.302,-0.995c4.018,-0.279 7.696,-2.116 10.357,-5.175" style="fill:#38885f;fill-rule:nonzero;"/><path d="M190.054,254.838l-11.183,-9.924c-0.347,-0.307 -0.813,-0.463 -1.263,-0.425l-11.864,0.906c-0.683,0.052 -1.267,0.508 -1.485,1.156c-0.22,0.649 -0.028,1.365 0.483,1.82l9.947,8.827l-8.494,10.234c-0.436,0.526 -0.516,1.263 -0.203,1.871c0.295,0.57 0.881,0.923 1.516,0.923c0.043,-0 0.086,-0.002 0.129,-0.005l11.865,-0.904c0.459,-0.035 0.887,-0.255 1.182,-0.611l9.55,-11.503c0.587,-0.708 0.507,-1.754 -0.18,-2.365" style="fill:#38885f;fill-rule:nonzero;"/><path d="M148.533,247.028c-0.346,-0.308 -0.815,-0.465 -1.262,-0.425l-11.864,0.904c-0.683,0.052 -1.267,0.508 -1.485,1.156c-0.22,0.649 -0.029,1.365 0.483,1.82l9.947,8.828l-8.494,10.235c-0.436,0.526 -0.516,1.263 -0.203,1.871c0.295,0.57 0.881,0.923 1.515,0.923c0.044,-0 0.087,-0.002 0.13,-0.005l11.865,-0.905c0.459,-0.034 0.887,-0.254 1.182,-0.611l9.55,-11.503c0.587,-0.707 0.507,-1.753 -0.18,-2.364l-11.184,-9.924Z" style="fill:#38885f;fill-rule:nonzero;"/><path d="M64.823,219.041c19.986,39.973 11.421,77.813 -12.373,77.813c-23.793,0 -19.986,-25.151 -13.641,-54.654c6.345,-29.504 -7.614,-34.852 -15.228,-34.852l33.642,-2.317l7.6,14.01Z" style="fill:#a0bb94;fill-rule:nonzero;"/><path d="M180.522,189.498c3.537,6.292 7.546,13.423 11.607,21.547c13.997,27.994 12.833,52.543 5.473,64.453c-3.642,5.891 -8.882,9.006 -15.155,9.006c-0.072,0 -0.147,0.002 -0.219,0.008l-112.988,8.24c1.293,-1.36 2.476,-2.902 3.534,-4.614c8.668,-14.025 8.141,-37.425 -0.857,-60.503c-1.292,-3.329 -2.76,-6.652 -4.403,-9.939c-0.015,-0.029 -0.031,-0.059 -0.047,-0.088l-0.302,-0.557c-3.988,-7.921 -7.891,-14.881 -11.344,-21.026c-13.762,-24.479 -21.465,-38.187 -11.286,-67.895l26.476,-1.931c0.006,-0 0.012,0 0.018,-0l3.244,-0.238l24.365,-1.777c0.015,-0 0.029,-0 0.044,-0.001l4.484,-0.327c0.004,-0.001 0.007,-0.002 0.011,-0.003l20.172,-1.471c0.015,-0.001 0.031,-0 0.046,-0.002l4.598,-0.336l0,-0l39.904,-2.911l0.066,0.08c-9.726,30.638 -0.74,46.629 12.559,70.285m-173.236,59.55c-3.395,-16.581 0.649,-26.213 4.767,-31.436c4.118,-5.223 9.182,-7.119 11.579,-7.119c1.895,-0 6.661,0.446 10.009,4.593c1.016,1.258 1.825,2.769 2.436,4.506c1.822,5.321 1.767,12.782 -0.211,21.975c-0.398,1.852 -0.78,3.673 -1.152,5.48l-27.428,2.001Zm48.216,-40.882l6.341,11.697c0.114,0.225 0.225,0.433 0.339,0.66c1.741,3.483 3.247,6.913 4.536,10.271c9.016,23.575 7.318,43.636 0.886,54.045c-3.642,5.891 -8.882,9.006 -15.155,9.006c-5.516,-0 -9.377,-1.462 -11.806,-4.467c-0.8,-0.99 -1.446,-2.155 -1.96,-3.468c-3.577,-9.365 -0.474,-26.234 3.119,-42.941c2.32,-10.787 2.227,-19.487 -0.256,-25.979c-0.823,-2.19 -1.911,-4.135 -3.274,-5.821c-0.503,-0.623 -1.028,-1.191 -1.567,-1.709l18.797,-1.294Zm3.979,-127.683c-3.244,14.018 -9.615,31.96 -13.304,41.492l-0.346,0.026l-0.099,0.007c2.08,-18.071 5.397,-32.832 8.611,-43.181l5.138,1.656Zm1.604,-17.341c0.01,0.035 0.021,0.072 0.031,0.11c0.529,1.889 0.49,4.735 0.052,8.187l-3.754,-1.294c1.381,-3.375 2.649,-5.758 3.671,-7.003m13.244,22.128c-3.249,12.724 -5.396,27.504 -6.251,35.109l-15.273,1.113c3.073,-8.119 9.113,-24.85 12.4,-39.164l9.124,2.942Zm12.172,-15.92c0.502,1.59 0.053,5.366 -1.043,10.46l-3.007,-1.036c1.473,-4.508 2.889,-7.81 4.05,-9.424m-6.461,17.761l3.357,1.082c-2.225,8.243 -5.358,18.124 -8.774,27.787c1.354,-10.837 3.34,-20.834 5.417,-28.869m19.673,6.342c-2.12,8.941 -3.37,18.879 -3.996,24.91l-15.966,1.164c2.631,-7.346 6.582,-18.897 9.411,-29.475l10.551,3.401Zm11.148,-12.901c0.182,0.303 0.409,0.754 0.664,1.404c0.512,1.302 0.349,3.705 -0.26,6.749l-3.592,-1.238c1.199,-3.598 2.326,-5.898 3.188,-6.915m-5.367,14.765l3.704,1.194c-1.883,6.033 -4.522,12.893 -7.099,18.856c0.95,-8.104 2.151,-14.762 3.395,-20.05m17.554,5.659c-1.016,4.317 -1.877,9.515 -2.581,15.582l-12.726,0.928c2.08,-4.807 5.032,-12.064 7.194,-19.126l8.113,2.616Zm10.081,-9.565c0.273,0.311 0.698,0.916 1.207,2.039c0.143,0.562 0.002,1.639 -0.362,3.081l-3.004,-1.035c0.867,-2.263 1.637,-3.536 2.159,-4.085m-4.306,11.427l2.707,0.873c-1.27,3.196 -2.888,6.841 -4.721,10.569c0.616,-4.623 1.31,-8.383 2.014,-11.442m33.167,10.693l-29.144,2.125c1.539,-3.163 3.132,-6.67 4.457,-10.084l24.687,7.959Zm-19.414,-38.239c10.766,-0.256 21.766,0.352 27.383,7.152c7.675,9.293 3.863,20.3 0.442,26.642l-1.996,-0.688l-25.829,-33.106Zm-25.137,-7.877c-1.623,-1.546 -0.468,-4.725 1.588,-8.399l8.642,10.631c-4.626,-0.077 -8.499,-0.587 -10.23,-2.232m5.972,-35.909c2.718,3.446 0.025,8.968 -3.515,14.715l-12.139,-15.56c7.694,-1.076 13.996,-1.254 15.654,0.845m84.444,90.488l-31.685,-10.92c4.474,-8.887 7.222,-21.814 -1.573,-32.462c-8.244,-9.981 -23.171,-9.695 -36.607,-9.198l-14.156,-18.145c4.996,-7.865 9.818,-16.499 4.302,-23.491c-3.673,-4.651 -12.843,-4.486 -24.639,-2.577l-10.083,-12.923c0.074,-0.253 0.179,-0.491 0.233,-0.752c0.516,-2.511 0.024,-5.072 -1.385,-7.211c-2.909,-4.418 -8.87,-5.644 -13.288,-2.735c-4.417,2.911 -5.644,8.87 -2.734,13.288c1.41,2.139 3.567,3.603 6.076,4.12c0.651,0.133 1.305,0.2 1.956,0.2c0.73,-0 1.449,-0.108 2.155,-0.273l6.68,8.216c-2.717,0.552 -5.505,1.138 -8.356,1.74c-14.816,3.129 -37.215,7.86 -39.695,2.749c-0.727,-1.495 -2.523,-2.12 -4.022,-1.393c-1.495,0.726 -2.117,2.527 -1.393,4.022c4.541,9.34 23.918,5.246 46.354,0.509c3.587,-0.758 7.503,-1.584 11.411,-2.338l17.569,21.612c-3.848,6.401 -6.647,13.015 -1.685,17.739c3.941,3.753 10.936,4.074 19.234,3.849l23.052,28.356l-15.95,-5.497c0.768,-3.12 0.971,-5.764 0.231,-7.411c-2.441,-5.427 -5.411,-6.173 -7.498,-5.838c-2.75,0.441 -5.11,3.24 -7.077,8.306l-8.341,-2.875c0.917,-4.495 1.164,-8.422 0.187,-10.907c-2.018,-5.136 -4.802,-5.881 -6.794,-5.6c-3.475,0.492 -6.219,5.111 -8.363,11.347l-10.807,-3.724c1.391,-6.598 1.946,-12.078 0.885,-14.782c-1.712,-4.353 -4.39,-4.666 -5.83,-4.458c-3.631,0.514 -6.799,6.354 -9.442,14.281l-9.877,-3.404c0.685,-4.828 0.8,-8.967 0.011,-11.784c-1.375,-4.91 -4.171,-5.431 -5.713,-5.29c-3.204,0.273 -6.421,4.769 -9.396,11.871l-13.349,-4.601c-0.076,-0.252 -0.117,-0.51 -0.214,-0.758c-0.935,-2.386 -2.743,-4.265 -5.088,-5.289c-2.349,-1.027 -4.956,-1.076 -7.342,-0.143c-2.386,0.934 -4.265,2.742 -5.291,5.089c-2.116,4.847 0.103,10.512 4.948,12.632c1.232,0.537 2.535,0.807 3.838,0.807c1.183,-0 2.368,-0.221 3.502,-0.666c1.313,-0.515 2.452,-1.315 3.4,-2.303l12.439,4.011c-4.119,13.129 -7.487,30.764 -9.251,47.619c-11.874,33.339 -2.696,49.681 11.181,74.365c0.61,1.086 1.251,2.232 1.888,3.37l-29.089,2.003c-0.319,0.022 -0.617,0.105 -0.9,0.218c-4.387,0.443 -10.443,3.353 -15.148,9.321c-5.143,6.523 -10.246,18.595 -5.339,39.052c0.345,1.435 1.648,2.428 3.146,2.3l28.372,-2.069c-2.376,12.674 -3.534,23.832 -1.317,32.163c0.069,0.265 0.134,0.536 0.21,0.796c0.105,0.351 0.223,0.69 0.341,1.031c0.171,0.502 0.355,0.993 0.555,1.471c0.078,0.184 0.156,0.368 0.239,0.547c0.674,1.496 1.482,2.884 2.48,4.119c3.587,4.439 9.121,6.694 16.452,6.702l0.063,-0c1.144,-0.002 2.266,-0.082 3.363,-0.239l126.67,-9.237c8.298,-0.037 15.455,-4.247 20.16,-11.86c9.901,-16.019 7.807,-44.273 -5.209,-70.309c-4.128,-8.253 -8.173,-15.452 -11.744,-21.803c-12.754,-22.689 -20.254,-36.164 -13.189,-61.658l26.344,32.406c0.595,0.731 1.461,1.111 2.337,1.111c0.656,-0 1.318,-0.214 1.872,-0.655c1.291,-1.028 1.513,-2.905 0.498,-4.206l-27.72,-35.53l30.041,9.685c0.306,0.098 0.618,0.145 0.923,0.145c1.262,0 2.435,-0.797 2.854,-2.057c0.523,-1.565 -0.313,-3.26 -1.873,-3.797" style="fill:#38885f;fill-rule:nonzero;"/></g></svg>