<svg clip-rule="evenodd" fill-rule="evenodd" stroke-linejoin="round" stroke-miterlimit="2" viewBox="0 0 210 300" xmlns="http://www.w3.org/2000/svg"><g fill-rule="nonzero"><path d="m52.501 296.99c23.793 0 32.359-37.841 12.372-77.813-19.986-39.973-37.117-53.297-22.524-93.904l129.947-9.477c-14.593 40.607 2.538 53.932 22.524 93.904 19.987 39.973 11.421 77.813-12.372 77.813z" fill="#fff"/><path d="m37.287 249.877-32.373 2.36c-7.931-33.06 11.104-44.753 18.718-44.753s21.572 5.348 15.227 34.851z" fill="#c6d3c1"/><g fill="#38885f"><path d="m63.306 153.62 8.496-10.234c.436-.526.516-1.264.203-1.872-.316-.609-.984-.98-1.645-.917l-11.864.904c-.46.035-.888.255-1.182.611l-9.55 11.503c-.588.708-.508 1.753.18 2.365l11.181 9.922c.313.278.716.43 1.133.43.043 0 .086-.002.129-.005l11.866-.904c.683-.052 1.268-.508 1.486-1.156.219-.649.028-1.365-.483-1.82z"/><path d="m89.462 163.789c.314.278.717.429 1.133.429.043 0 .086-.002.13-.005l11.865-.904c.683-.052 1.268-.508 1.486-1.156.22-.649.028-1.365-.483-1.82l-9.95-8.827 8.496-10.234c.437-.526.516-1.264.203-1.871-.314-.61-.964-.983-1.645-.918l-11.864.904c-.459.035-.888.255-1.182.611l-9.55 11.503c-.588.708-.508 1.754.18 2.365z"/><path d="m107.303 185.398c.723 8.311 8.058 14.502 16.327 13.77l9.407-.467 13.889 12.129c.318.278.718.421 1.122.421.257 0 .513-.057.753-.175.616-.303.991-.948.949-1.633l-.744-12.195c7.464-1.485 12.791-8.402 12.115-16.156-.722-8.308-8.089-14.477-16.375-13.768l-23.677 1.684c-8.312.722-14.488 8.074-13.766 16.39"/><path d="m132.982 235.44c2.661-3.057 3.971-6.956 3.693-10.973-.279-4.019-2.116-7.697-5.175-10.358-3.057-2.661-6.949-3.976-10.998-3.69l-23.624 2.015c-8.317.588-14.613 7.828-14.037 16.147.539 7.765 6.877 13.771 14.482 14.076l1.159 12.16c.065.685.534 1.264 1.19 1.467.167.052.338.077.506.077.497 0 .978-.217 1.308-.611l11.837-14.14 9.302-.995c4.018-.279 7.696-2.116 10.357-5.175"/><path d="m190.054 254.838-11.183-9.924c-.347-.307-.813-.463-1.263-.425l-11.864.906c-.683.052-1.267.508-1.485 1.156-.22.649-.028 1.365.483 1.82l9.947 8.827-8.494 10.234c-.436.526-.516 1.263-.203 1.871.295.57.881.923 1.516.923.043 0 .086-.002.129-.005l11.865-.904c.459-.035.887-.255 1.182-.611l9.55-11.503c.587-.708.507-1.754-.18-2.365"/><path d="m148.533 247.028c-.346-.308-.815-.465-1.262-.425l-11.864.904c-.683.052-1.267.508-1.485 1.156-.22.649-.029 1.365.483 1.82l9.947 8.828-8.494 10.235c-.436.526-.516 1.263-.203 1.871.295.57.881.923 1.515.923.044 0 .087-.002.13-.005l11.865-.905c.459-.034.887-.254 1.182-.611l9.55-11.503c.587-.707.507-1.753-.18-2.364z"/></g><path d="m64.823 219.041c19.986 39.973 11.421 77.813-12.373 77.813-23.793 0-19.986-25.151-13.641-54.654 6.345-29.504-7.614-34.852-15.228-34.852l33.642-2.317z" fill="#a0bb94"/><path d="m180.522 189.498c3.537 6.292 7.546 13.423 11.607 21.547 13.997 27.994 12.833 52.543 5.473 64.453-3.642 5.891-8.882 9.006-15.155 9.006-.072 0-.147.002-.219.008l-112.988 8.24c1.293-1.36 2.476-2.902 3.534-4.614 8.668-14.025 8.141-37.425-.857-60.503-1.292-3.329-2.76-6.652-4.403-9.939-.015-.029-.031-.059-.047-.088l-.302-.557c-3.988-7.921-7.891-14.881-11.344-21.026-13.762-24.479-21.465-38.187-11.286-67.895l26.476-1.931h.018l3.244-.238 24.365-1.777c.015 0 .029 0 .044-.001l4.484-.327c.004-.001.007-.002.011-.003l20.172-1.471c.015-.001.031 0 .046-.002l4.598-.336 39.904-2.911.066.08c-9.726 30.638-.74 46.629 12.559 70.285m-173.236 59.55c-3.395-16.581.649-26.213 4.767-31.436s9.182-7.119 11.579-7.119c1.895 0 6.661.446 10.009 4.593 1.016 1.258 1.825 2.769 2.436 4.506 1.822 5.321 1.767 12.782-.211 21.975-.398 1.852-.78 3.673-1.152 5.48zm48.216-40.882 6.341 11.697c.114.225.225.433.339.66 1.741 3.483 3.247 6.913 4.536 10.271 9.016 23.575 7.318 43.636.886 54.045-3.642 5.891-8.882 9.006-15.155 9.006-5.516 0-9.377-1.462-11.806-4.467-.8-.99-1.446-2.155-1.96-3.468-3.577-9.365-.474-26.234 3.119-42.941 2.32-10.787 2.227-19.487-.256-25.979-.823-2.19-1.911-4.135-3.274-5.821-.503-.623-1.028-1.191-1.567-1.709zm3.979-127.683c-3.244 14.018-9.615 31.96-13.304 41.492l-.346.026-.099.007c2.08-18.071 5.397-32.832 8.611-43.181zm1.604-17.341c.01.035.021.072.031.11.529 1.889.49 4.735.052 8.187l-3.754-1.294c1.381-3.375 2.649-5.758 3.671-7.003m13.244 22.128c-3.249 12.724-5.396 27.504-6.251 35.109l-15.273 1.113c3.073-8.119 9.113-24.85 12.4-39.164zm12.172-15.92c.502 1.59.053 5.366-1.043 10.46l-3.007-1.036c1.473-4.508 2.889-7.81 4.05-9.424m-6.461 17.761 3.357 1.082c-2.225 8.243-5.358 18.124-8.774 27.787 1.354-10.837 3.34-20.834 5.417-28.869m19.673 6.342c-2.12 8.941-3.37 18.879-3.996 24.91l-15.966 1.164c2.631-7.346 6.582-18.897 9.411-29.475zm11.148-12.901c.182.303.409.754.664 1.404.512 1.302.349 3.705-.26 6.749l-3.592-1.238c1.199-3.598 2.326-5.898 3.188-6.915m-5.367 14.765 3.704 1.194c-1.883 6.033-4.522 12.893-7.099 18.856.95-8.104 2.151-14.762 3.395-20.05m17.554 5.659c-1.016 4.317-1.877 9.515-2.581 15.582l-12.726.928c2.08-4.807 5.032-12.064 7.194-19.126zm10.081-9.565c.273.311.698.916 1.207 2.039.143.562.002 1.639-.362 3.081l-3.004-1.035c.867-2.263 1.637-3.536 2.159-4.085m-4.306 11.427 2.707.873c-1.27 3.196-2.888 6.841-4.721 10.569.616-4.623 1.31-8.383 2.014-11.442m33.167 10.693-29.144 2.125c1.539-3.163 3.132-6.67 4.457-10.084zm-19.414-38.239c10.766-.256 21.766.352 27.383 7.152 7.675 9.293 3.863 20.3.442 26.642l-1.996-.688zm-25.137-7.877c-1.623-1.546-.468-4.725 1.588-8.399l8.642 10.631c-4.626-.077-8.499-.587-10.23-2.232m5.972-35.909c2.718 3.446.025 8.968-3.515 14.715l-12.139-15.56c7.694-1.076 13.996-1.254 15.654.845m84.444 90.488-31.685-10.92c4.474-8.887 7.222-21.814-1.573-32.462-8.244-9.981-23.171-9.695-36.607-9.198l-14.156-18.145c4.996-7.865 9.818-16.499 4.302-23.491-3.673-4.651-12.843-4.486-24.639-2.577l-10.083-12.923c.074-.253.179-.491.233-.752.516-2.511.024-5.072-1.385-7.211-2.909-4.418-8.87-5.644-13.288-2.735-4.417 2.911-5.644 8.87-2.734 13.288 1.41 2.139 3.567 3.603 6.076 4.12.651.133 1.305.2 1.956.2.73 0 1.449-.108 2.155-.273l6.68 8.216c-2.717.552-5.505 1.138-8.356 1.74-14.816 3.129-37.215 7.86-39.695 2.749-.727-1.495-2.523-2.12-4.022-1.393-1.495.726-2.117 2.527-1.393 4.022 4.541 9.34 23.918 5.246 46.354.509 3.587-.758 7.503-1.584 11.411-2.338l17.569 21.612c-3.848 6.401-6.647 13.015-1.685 17.739 3.941 3.753 10.936 4.074 19.234 3.849l23.052 28.356-15.95-5.497c.768-3.12.971-5.764.231-7.411-2.441-5.427-5.411-6.173-7.498-5.838-2.75.441-5.11 3.24-7.077 8.306l-8.341-2.875c.917-4.495 1.164-8.422.187-10.907-2.018-5.136-4.802-5.881-6.794-5.6-3.475.492-6.219 5.111-8.363 11.347l-10.807-3.724c1.391-6.598 1.946-12.078.885-14.782-1.712-4.353-4.39-4.666-5.83-4.458-3.631.514-6.799 6.354-9.442 14.281l-9.877-3.404c.685-4.828.8-8.967.011-11.784-1.375-4.91-4.171-5.431-5.713-5.29-3.204.273-6.421 4.769-9.396 11.871l-13.349-4.601c-.076-.252-.117-.51-.214-.758-.935-2.386-2.743-4.265-5.088-5.289-2.349-1.027-4.956-1.076-7.342-.143-2.386.934-4.265 2.742-5.291 5.089-2.116 4.847.103 10.512 4.948 12.632 1.232.537 2.535.807 3.838.807 1.183 0 2.368-.221 3.502-.666 1.313-.515 2.452-1.315 3.4-2.303l12.439 4.011c-4.119 13.129-7.487 30.764-9.251 47.619-11.874 33.339-2.696 49.681 11.181 74.365.61 1.086 1.251 2.232 1.888 3.37l-29.089 2.003c-.319.022-.617.105-.9.218-4.387.443-10.443 3.353-15.148 9.321-5.143 6.523-10.246 18.595-5.339 39.052.345 1.435 1.648 2.428 3.146 2.3l28.372-2.069c-2.376 12.674-3.534 23.832-1.317 32.163.069.265.134.536.21.796.105.351.223.69.341 1.031.171.502.355.993.555 1.471.078.184.156.368.239.547.674 1.496 1.482 2.884 2.48 4.119 3.587 4.439 9.121 6.694 16.452 6.702h.063c1.144-.002 2.266-.082 3.363-.239l126.67-9.237c8.298-.037 15.455-4.247 20.16-11.86 9.901-16.019 7.807-44.273-5.209-70.309-4.128-8.253-8.173-15.452-11.744-21.803-12.754-22.689-20.254-36.164-13.189-61.658l26.344 32.406c.595.731 1.461 1.111 2.337 1.111.656 0 1.318-.214 1.872-.655 1.291-1.028 1.513-2.905.498-4.206l-27.72-35.53 30.041 9.685c.306.098.618.145.923.145 1.262 0 2.435-.797 2.854-2.057.523-1.565-.313-3.26-1.873-3.797" fill="#38885f"/></g></svg>